<svg id="visual" viewBox="0 0 920 360" width="920" height="360" xmlns="http://www.w3.org/2000/svg" xmlns:xlink="http://www.w3.org/1999/xlink" version="1.1"><rect x="0" y="0" width="920" height="360" fill="#060B19"></rect><path d="M0 224L21.8 224.5C43.7 225 87.3 226 131.2 233.5C175 241 219 255 262.8 252.3C306.7 249.7 350.3 230.3 394.2 222.2C438 214 482 217 525.8 220.8C569.7 224.7 613.3 229.3 657.2 236.3C701 243.3 745 252.7 788.8 255.3C832.7 258 876.3 254 898.2 252L920 250L920 361L898.2 361C876.3 361 832.7 361 788.8 361C745 361 701 361 657.2 361C613.3 361 569.7 361 525.8 361C482 361 438 361 394.2 361C350.3 361 306.7 361 262.8 361C219 361 175 361 131.2 361C87.3 361 43.7 361 21.8 361L0 361Z" fill="#fa7268"></path><path d="M0 260L21.8 260.7C43.7 261.3 87.3 262.7 131.2 261.7C175 260.7 219 257.3 262.8 254.2C306.7 251 350.3 248 394.2 253.3C438 258.7 482 272.3 525.8 271C569.7 269.7 613.3 253.3 657.2 253.3C701 253.3 745 269.7 788.8 273.3C832.7 277 876.3 268 898.2 263.5L920 259L920 361L898.2 361C876.3 361 832.7 361 788.8 361C745 361 701 361 657.2 361C613.3 361 569.7 361 525.8 361C482 361 438 361 394.2 361C350.3 361 306.7 361 262.8 361C219 361 175 361 131.2 361C87.3 361 43.7 361 21.8 361L0 361Z" fill="#ef5f67"></path><path d="M0 303L21.8 301.2C43.7 299.3 87.3 295.7 131.2 290.2C175 284.7 219 277.3 262.8 274C306.7 270.7 350.3 271.3 394.2 273.3C438 275.3 482 278.7 525.8 278C569.7 277.3 613.3 272.7 657.2 272.5C701 272.3 745 276.7 788.8 275.8C832.7 275 876.3 269 898.2 266L920 263L920 361L898.2 361C876.3 361 832.7 361 788.8 361C745 361 701 361 657.2 361C613.3 361 569.7 361 525.8 361C482 361 438 361 394.2 361C350.3 361 306.7 361 262.8 361C219 361 175 361 131.2 361C87.3 361 43.7 361 21.8 361L0 361Z" fill="#e34c67"></path><path d="M0 322L21.8 322C43.7 322 87.3 322 131.2 321.7C175 321.3 219 320.7 262.8 317.8C306.7 315 350.3 310 394.2 304.8C438 299.7 482 294.3 525.8 296.2C569.7 298 613.3 307 657.2 310.3C701 313.7 745 311.3 788.8 311.3C832.7 311.3 876.3 313.7 898.2 314.8L920 316L920 361L898.2 361C876.3 361 832.7 361 788.8 361C745 361 701 361 657.2 361C613.3 361 569.7 361 525.8 361C482 361 438 361 394.2 361C350.3 361 306.7 361 262.8 361C219 361 175 361 131.2 361C87.3 361 43.7 361 21.8 361L0 361Z" fill="#d53867"></path><path d="M0 341L21.8 340.7C43.7 340.3 87.3 339.7 131.2 339.8C175 340 219 341 262.8 338.8C306.7 336.7 350.3 331.3 394.2 327C438 322.7 482 319.3 525.8 318.5C569.7 317.7 613.3 319.3 657.2 320.8C701 322.3 745 323.7 788.8 323.5C832.7 323.3 876.3 321.7 898.2 320.8L920 320L920 361L898.2 361C876.3 361 832.7 361 788.8 361C745 361 701 361 657.2 361C613.3 361 569.7 361 525.8 361C482 361 438 361 394.2 361C350.3 361 306.7 361 262.8 361C219 361 175 361 131.2 361C87.3 361 43.7 361 21.8 361L0 361Z" fill="#c62368"></path></svg>