<svg id="visual" viewBox="0 0 1920 1080" width="1920" height="1080" xmlns="http://www.w3.org/2000/svg" xmlns:xlink="http://www.w3.org/1999/xlink" version="1.1"><rect x="0" y="0" width="1920" height="1080" fill="#2b5866"></rect><defs><linearGradient id="grad1_0" x1="43.8%" y1="0%" x2="100%" y2="100%"><stop offset="14.444444444444446%" stop-color="#060b19" stop-opacity="1"></stop><stop offset="85.55555555555554%" stop-color="#060b19" stop-opacity="1"></stop></linearGradient></defs><defs><linearGradient id="grad1_1" x1="43.8%" y1="0%" x2="100%" y2="100%"><stop offset="14.444444444444446%" stop-color="#060b19" stop-opacity="1"></stop><stop offset="85.55555555555554%" stop-color="#131e2c" stop-opacity="1"></stop></linearGradient></defs><defs><linearGradient id="grad1_2" x1="43.8%" y1="0%" x2="100%" y2="100%"><stop offset="14.444444444444446%" stop-color="#1b3040" stop-opacity="1"></stop><stop offset="85.55555555555554%" stop-color="#131e2c" stop-opacity="1"></stop></linearGradient></defs><defs><linearGradient id="grad1_3" x1="43.8%" y1="0%" x2="100%" y2="100%"><stop offset="14.444444444444446%" stop-color="#1b3040" stop-opacity="1"></stop><stop offset="85.55555555555554%" stop-color="#234453" stop-opacity="1"></stop></linearGradient></defs><defs><linearGradient id="grad1_4" x1="43.8%" y1="0%" x2="100%" y2="100%"><stop offset="14.444444444444446%" stop-color="#2b5866" stop-opacity="1"></stop><stop offset="85.55555555555554%" stop-color="#234453" stop-opacity="1"></stop></linearGradient></defs><defs><linearGradient id="grad2_0" x1="0%" y1="0%" x2="56.3%" y2="100%"><stop offset="14.444444444444446%" stop-color="#060b19" stop-opacity="1"></stop><stop offset="85.55555555555554%" stop-color="#060b19" stop-opacity="1"></stop></linearGradient></defs><defs><linearGradient id="grad2_1" x1="0%" y1="0%" x2="56.3%" y2="100%"><stop offset="14.444444444444446%" stop-color="#131e2c" stop-opacity="1"></stop><stop offset="85.55555555555554%" stop-color="#060b19" stop-opacity="1"></stop></linearGradient></defs><defs><linearGradient id="grad2_2" x1="0%" y1="0%" x2="56.3%" y2="100%"><stop offset="14.444444444444446%" stop-color="#131e2c" stop-opacity="1"></stop><stop offset="85.55555555555554%" stop-color="#1b3040" stop-opacity="1"></stop></linearGradient></defs><defs><linearGradient id="grad2_3" x1="0%" y1="0%" x2="56.3%" y2="100%"><stop offset="14.444444444444446%" stop-color="#234453" stop-opacity="1"></stop><stop offset="85.55555555555554%" stop-color="#1b3040" stop-opacity="1"></stop></linearGradient></defs><defs><linearGradient id="grad2_4" x1="0%" y1="0%" x2="56.3%" y2="100%"><stop offset="14.444444444444446%" stop-color="#234453" stop-opacity="1"></stop><stop offset="85.55555555555554%" stop-color="#2b5866" stop-opacity="1"></stop></linearGradient></defs><g transform="translate(1920, 0)"><path d="M0 918C-121.7 945.4 -243.5 972.7 -283.7 873.1C-323.9 773.4 -282.5 546.8 -337.4 464.4C-392.2 382 -543.3 443.8 -567.1 412C-591 380.3 -487.7 254.9 -525 170.6C-562.3 86.3 -740.1 43.2 -918 0L0 0Z" fill="#274e5d"></path><path d="M0 734.4C-97.4 756.3 -194.8 778.2 -226.9 698.5C-259.1 618.7 -226 437.4 -269.9 371.5C-313.8 305.6 -434.6 355.1 -453.7 329.6C-472.8 304.2 -390.2 203.9 -420 136.5C-449.8 69 -592.1 34.5 -734.4 0L0 0Z" fill="#1f3a4a"></path><path d="M0 550.8C-73 567.2 -146.1 583.6 -170.2 523.8C-194.3 464.1 -169.5 328.1 -202.4 278.6C-235.3 229.2 -326 266.3 -340.3 247.2C-354.6 228.2 -292.6 152.9 -315 102.3C-337.4 51.8 -444.1 25.9 -550.8 0L0 0Z" fill="#172736"></path><path d="M0 367.2C-48.7 378.1 -97.4 389.1 -113.5 349.2C-129.6 309.4 -113 218.7 -135 185.8C-156.9 152.8 -217.3 177.5 -226.8 164.8C-236.4 152.1 -195.1 101.9 -210 68.2C-224.9 34.5 -296.1 17.3 -367.2 0L0 0Z" fill="#0e1622"></path><path d="M0 183.6C-24.3 189.1 -48.7 194.5 -56.7 174.6C-64.8 154.7 -56.5 109.4 -67.5 92.9C-78.4 76.4 -108.7 88.8 -113.4 82.4C-118.2 76.1 -97.5 51 -105 34.1C-112.5 17.3 -148 8.6 -183.6 0L0 0Z" fill="#060b19"></path></g><g transform="translate(0, 1080)"><path d="M0 -918C49.9 -748 99.8 -577.9 171.2 -526.9C242.6 -475.9 335.5 -543.9 389.1 -535.6C442.7 -527.3 457.1 -442.7 546.1 -396.8C635.1 -350.8 798.6 -343.4 873.1 -283.7C947.5 -224 932.7 -112 918 0L0 0Z" fill="#274e5d"></path><path d="M0 -734.4C39.9 -598.4 79.8 -462.3 137 -421.5C194.1 -380.7 268.4 -435.1 311.3 -428.5C354.2 -421.8 365.7 -354.2 436.9 -317.4C508.1 -280.6 638.9 -274.7 698.5 -226.9C758 -179.2 746.2 -89.6 734.4 0L0 0Z" fill="#1f3a4a"></path><path d="M0 -550.8C29.9 -448.8 59.9 -346.7 102.7 -316.1C145.6 -285.5 201.3 -326.3 233.5 -321.3C265.6 -316.4 274.3 -265.6 327.7 -238.1C381 -210.5 479.2 -206 523.8 -170.2C568.5 -134.4 559.6 -67.2 550.8 0L0 0Z" fill="#172736"></path><path d="M0 -367.2C20 -299.2 39.9 -231.2 68.5 -210.8C97 -190.3 134.2 -217.5 155.6 -214.2C177.1 -210.9 182.8 -177.1 218.4 -158.7C254 -140.3 319.5 -137.3 349.2 -113.5C379 -89.6 373.1 -44.8 367.2 0L0 0Z" fill="#0e1622"></path><path d="M0 -183.6C10 -149.6 20 -115.6 34.2 -105.4C48.5 -95.2 67.1 -108.8 77.8 -107.1C88.5 -105.5 91.4 -88.5 109.2 -79.4C127 -70.2 159.7 -68.7 174.6 -56.7C189.5 -44.8 186.5 -22.4 183.6 0L0 0Z" fill="#060b19"></path></g></svg>